<svg width="146" height="166" viewBox="0 0 146 166" fill="none" xmlns="http://www.w3.org/2000/svg">
<path d="M53.7794 36.7632C53.271 37.3473 52.5029 38.4555 51.8462 39.8813C50.2649 39.3558 48.9051 39.2826 48.1597 39.37C49.1241 40.2095 50.2076 40.84 51.2751 41.3127C50.8972 42.4173 50.6242 43.6409 50.5855 44.9189C51.1558 44.4311 52.0264 43.3836 52.7145 41.8659C54.2068 42.3519 55.5416 42.5405 56.3153 42.5639C55.3112 41.6214 54.2605 40.9376 53.2492 40.4497C53.5779 39.376 53.7894 38.1404 53.7794 36.7632Z" fill="url(#paint0_linear_1_551)"/>
<path d="M47.9416 23.523C47.603 23.9119 47.0915 24.6501 46.6542 25.5999C45.6016 25.25 44.697 25.1997 44.2008 25.2578C44.8427 25.8166 45.5637 26.2366 46.2742 26.5513C46.0227 27.2865 45.8413 28.101 45.8156 28.9516C46.1952 28.6269 46.7726 27.9286 47.2306 26.9184C48.2247 27.2424 49.114 27.3682 49.6294 27.3838C48.9606 26.756 48.26 26.3024 47.5865 25.9776C47.8055 25.2626 47.9482 24.4403 47.9416 23.523Z" fill="url(#paint1_linear_1_551)"/>
<path d="M34.5374 8.28299C34.0291 8.8669 33.2611 9.97481 32.6045 11.4002C31.0231 10.8746 29.663 10.8024 28.9176 10.8898C29.882 11.7292 30.9655 12.3597 32.0331 12.8325C31.6551 13.9371 31.3821 15.1607 31.3434 16.4387C31.9138 15.9508 32.7844 14.9034 33.4725 13.3857C34.9647 13.8716 36.2995 14.0603 37.0733 14.0837C36.0691 13.1411 35.0185 12.4574 34.0072 11.9695C34.3358 10.8958 34.5473 9.66019 34.5374 8.28299Z" fill="url(#paint2_linear_1_551)"/>
<path d="M33.2225 38.7792C32.4747 39.6383 31.3439 41.2679 30.3778 43.3652C28.0515 42.5922 26.0505 42.4854 24.954 42.614C26.3716 43.8481 27.9622 44.78 29.5315 45.4753C28.9762 47.0995 28.5801 48.8999 28.5233 50.7785C29.3623 50.0609 30.6428 48.5196 31.6551 46.2871C33.8507 47.0021 35.8149 47.2788 36.9534 47.3132C35.4757 45.9262 33.9289 44.9213 32.4407 44.2035C32.9244 42.6236 33.2372 40.8059 33.2225 38.7792Z" fill="url(#paint3_linear_1_551)"/>
<circle cx="36.19" cy="29.0093" r="0.846528" transform="rotate(21.3865 36.19 29.0093)" fill="#2F235A"/>
<circle cx="57.1502" cy="18.3654" r="0.846528" transform="rotate(21.3865 57.1502 18.3654)" fill="#FE9076"/>
<circle cx="16.9151" cy="22.9896" r="0.846528" transform="rotate(21.3865 16.9151 22.9896)" fill="#FFA400"/>
<circle cx="35.093" cy="57.075" r="0.846528" transform="rotate(21.3865 35.093 57.075)" fill="#23BB86"/>
<path d="M56.5071 14.3193C55.6836 11.1739 52.7109 3.98002 47.409 0.368486" stroke="#FE9076" stroke-width="0.736823" stroke-linecap="round"/>
<path d="M14.4167 19.5746C12.3674 17.0501 6.68876 11.7265 0.368467 10.6275" stroke="#FFA400" stroke-width="0.736823" stroke-linecap="round"/>
<path d="M31.491 58.3052C29.6749 58.9675 25.1031 61.078 21.3448 64.2213" stroke="#23BB86" stroke-width="0.736823" stroke-linecap="round"/>
<path d="M91.8618 36.7632C92.3702 37.3473 93.1383 38.4555 93.7951 39.8813C95.3764 39.3558 96.7362 39.2826 97.4816 39.37C96.5172 40.2095 95.4337 40.84 94.3661 41.3127C94.7441 42.4173 95.0171 43.6409 95.0558 44.9189C94.4855 44.4311 93.6148 43.3836 92.9267 41.8659C91.4345 42.3519 90.0997 42.5405 89.3259 42.5639C90.3301 41.6214 91.3807 40.9376 92.392 40.4497C92.0634 39.376 91.8519 38.1404 91.8618 36.7632Z" fill="url(#paint4_linear_1_551)"/>
<path d="M97.6997 23.523C98.0383 23.9119 98.5498 24.6501 98.9871 25.5999C100.04 25.25 100.944 25.1997 101.441 25.2578C100.799 25.8166 100.078 26.2366 99.367 26.5513C99.6186 27.2865 99.7999 28.101 99.8257 28.9516C99.446 28.6269 98.8686 27.9286 98.4107 26.9184C97.4165 27.2424 96.5273 27.3682 96.0119 27.3838C96.6807 26.756 97.3813 26.3024 98.0548 25.9776C97.8358 25.2626 97.6931 24.4403 97.6997 23.523Z" fill="url(#paint5_linear_1_551)"/>
<path d="M111.104 8.28299C111.612 8.8669 112.38 9.97481 113.037 11.4002C114.618 10.8746 115.978 10.8024 116.724 10.8898C115.759 11.7292 114.676 12.3597 113.608 12.8325C113.986 13.9371 114.259 15.1607 114.298 16.4387C113.728 15.9508 112.857 14.9034 112.169 13.3857C110.677 13.8716 109.342 14.0603 108.568 14.0837C109.572 13.1411 110.623 12.4574 111.634 11.9695C111.305 10.8958 111.094 9.66019 111.104 8.28299Z" fill="url(#paint6_linear_1_551)"/>
<path d="M112.419 38.7792C113.167 39.6383 114.297 41.2679 115.264 43.3652C117.59 42.5922 119.591 42.4854 120.687 42.614C119.27 43.8481 117.679 44.78 116.11 45.4753C116.665 47.0995 117.061 48.8999 117.118 50.7785C116.279 50.0609 114.998 48.5196 113.986 46.2871C111.791 47.0021 109.826 47.2788 108.688 47.3132C110.166 45.9262 111.712 44.9213 113.201 44.2035C112.717 42.6236 112.404 40.8059 112.419 38.7792Z" fill="url(#paint7_linear_1_551)"/>
<circle cx="0.846528" cy="0.846528" r="0.846528" transform="matrix(-0.931142 0.364658 0.364658 0.931142 109.931 27.9124)" fill="#2F235A"/>
<circle cx="0.846528" cy="0.846528" r="0.846528" transform="matrix(-0.931142 0.364658 0.364658 0.931142 88.9706 17.2684)" fill="#FE9076"/>
<circle cx="0.846528" cy="0.846528" r="0.846528" transform="matrix(-0.931142 0.364658 0.364658 0.931142 129.206 21.8927)" fill="#FFA400"/>
<circle cx="0.846528" cy="0.846528" r="0.846528" transform="matrix(-0.931142 0.364658 0.364658 0.931142 111.028 55.978)" fill="#23BB86"/>
<path d="M89.1341 14.3193C89.9577 11.1739 92.9303 3.98002 98.2323 0.368486" stroke="#FE9076" stroke-width="0.736823" stroke-linecap="round"/>
<path d="M131.225 19.5746C133.274 17.0501 138.953 11.7265 145.273 10.6275" stroke="#FFA400" stroke-width="0.736823" stroke-linecap="round"/>
<path d="M114.15 58.3052C115.966 58.9675 120.538 61.078 124.297 64.2213" stroke="#23BB86" stroke-width="0.736823" stroke-linecap="round"/>
<rect x="27.3557" y="103.633" width="89.8505" height="62.1103" fill="url(#paint8_linear_1_551)"/>
<mask id="mask0_1_551" style="mask-type:alpha" maskUnits="userSpaceOnUse" x="27" y="103" width="91" height="63">
<rect x="27.3557" y="103.633" width="89.8505" height="62.1103" fill="#C4C4C4"/>
</mask>
<g mask="url(#mask0_1_551)">
<path d="M31.6071 102.051L92.7891 102.051L78.9605 126.063L17.7785 126.063L31.6071 102.051Z" fill="black" fill-opacity="0.07"/>
<rect x="88.4576" y="103.633" width="89.8505" height="62.1103" fill="url(#paint9_linear_1_551)"/>
</g>
<path d="M27.2763 103.633L88.4583 103.633L76.6398 123.355L15.4578 123.355L27.2763 103.633Z" fill="url(#paint10_linear_1_551)"/>
<mask id="mask1_1_551" style="mask-type:alpha" maskUnits="userSpaceOnUse" x="88" y="103" width="30" height="63">
<rect x="88.4583" y="103.633" width="28.7479" height="62.1103" fill="#C4C4C4"/>
</mask>
<g mask="url(#mask1_1_551)">
<path d="M113.706 103.529L84.9135 103.529L98.4427 126.236L127.236 126.236L113.706 103.529Z" fill="black" fill-opacity="0.07"/>
</g>
<path d="M117.251 103.633L88.4583 103.633L100.277 123.355L129.07 123.355L117.251 103.633Z" fill="url(#paint11_linear_1_551)"/>
<circle cx="59.2067" cy="86.4343" r="8.49082" fill="url(#paint12_linear_1_551)"/>
<circle cx="85.607" cy="75.0845" r="8.20473" fill="url(#paint13_linear_1_551)"/>
<circle cx="67.6975" cy="54.1786" r="6.61631" fill="url(#paint14_linear_1_551)"/>
<circle cx="90.1083" cy="53.18" r="1.65" fill="#FFA800" fill-opacity="0.23"/>
<circle cx="79.0522" cy="90.6837" r="1.65" fill="#FFA800" fill-opacity="0.23"/>
<circle cx="51.9581" cy="65.2297" r="1.65" fill="#FFA800" fill-opacity="0.23"/>
<path d="M117.418 103.926H27.2846L13.4423 18.5785H134.04L117.418 103.926Z" fill="url(#paint15_linear_1_551)"/>
<defs>
<linearGradient id="paint0_linear_1_551" x1="53.53" y1="37.6667" x2="50.531" y2="45.3244" gradientUnits="userSpaceOnUse">
<stop stop-color="#FFE89E"/>
<stop offset="1" stop-color="#FFBF1A"/>
</linearGradient>
<linearGradient id="paint1_linear_1_551" x1="47.7752" y1="24.1243" x2="45.779" y2="29.2216" gradientUnits="userSpaceOnUse">
<stop stop-color="#FFE89E"/>
<stop offset="1" stop-color="#FFBF1A"/>
</linearGradient>
<linearGradient id="paint2_linear_1_551" x1="34.2879" y1="9.18649" x2="31.289" y2="16.8441" gradientUnits="userSpaceOnUse">
<stop stop-color="#FFE89E"/>
<stop offset="1" stop-color="#FFBF1A"/>
</linearGradient>
<linearGradient id="paint3_linear_1_551" x1="32.8552" y1="40.1084" x2="28.4429" y2="51.3749" gradientUnits="userSpaceOnUse">
<stop stop-color="#FFE89E"/>
<stop offset="1" stop-color="#FFBF1A"/>
</linearGradient>
<linearGradient id="paint4_linear_1_551" x1="92.1113" y1="37.6667" x2="95.1102" y2="45.3244" gradientUnits="userSpaceOnUse">
<stop stop-color="#FFE89E"/>
<stop offset="1" stop-color="#FFBF1A"/>
</linearGradient>
<linearGradient id="paint5_linear_1_551" x1="97.8661" y1="24.1243" x2="99.8623" y2="29.2216" gradientUnits="userSpaceOnUse">
<stop stop-color="#FFE89E"/>
<stop offset="1" stop-color="#FFBF1A"/>
</linearGradient>
<linearGradient id="paint6_linear_1_551" x1="111.353" y1="9.18649" x2="114.352" y2="16.8441" gradientUnits="userSpaceOnUse">
<stop stop-color="#FFE89E"/>
<stop offset="1" stop-color="#FFBF1A"/>
</linearGradient>
<linearGradient id="paint7_linear_1_551" x1="112.786" y1="40.1084" x2="117.198" y2="51.3749" gradientUnits="userSpaceOnUse">
<stop stop-color="#FFE89E"/>
<stop offset="1" stop-color="#FFBF1A"/>
</linearGradient>
<linearGradient id="paint8_linear_1_551" x1="57.37" y1="92.1335" x2="21.5597" y2="190.765" gradientUnits="userSpaceOnUse">
<stop stop-color="#FFD481"/>
<stop offset="1" stop-color="#FA620C"/>
</linearGradient>
<linearGradient id="paint9_linear_1_551" x1="42.6855" y1="99.6931" x2="151.366" y2="215.833" gradientUnits="userSpaceOnUse">
<stop stop-color="#FFD481"/>
<stop offset="0.83311" stop-color="#FA620C"/>
</linearGradient>
<linearGradient id="paint10_linear_1_551" x1="28.5354" y1="96.5837" x2="25.6278" y2="138.606" gradientUnits="userSpaceOnUse">
<stop stop-color="#FFD481"/>
<stop offset="1" stop-color="#FA620C"/>
</linearGradient>
<linearGradient id="paint11_linear_1_551" x1="121.794" y1="96.5837" x2="126.966" y2="138.164" gradientUnits="userSpaceOnUse">
<stop stop-color="#FFD481"/>
<stop offset="1" stop-color="#FA620C"/>
</linearGradient>
<linearGradient id="paint12_linear_1_551" x1="59.8497" y1="75.1412" x2="58.2346" y2="98.06" gradientUnits="userSpaceOnUse">
<stop stop-color="#FF9F81"/>
<stop offset="1" stop-color="#F53838"/>
</linearGradient>
<linearGradient id="paint13_linear_1_551" x1="86.2282" y1="64.1719" x2="84.6676" y2="86.3185" gradientUnits="userSpaceOnUse">
<stop stop-color="#FF9F81"/>
<stop offset="1" stop-color="#F53838"/>
</linearGradient>
<linearGradient id="paint14_linear_1_551" x1="68.1985" y1="45.3787" x2="66.94" y2="63.2377" gradientUnits="userSpaceOnUse">
<stop stop-color="#FF9F81"/>
<stop offset="1" stop-color="#F53838"/>
</linearGradient>
<linearGradient id="paint15_linear_1_551" x1="72.7503" y1="18.5785" x2="72.7503" y2="199.902" gradientUnits="userSpaceOnUse">
<stop stop-color="white" stop-opacity="0"/>
<stop offset="1" stop-color="#FE9277"/>
</linearGradient>
</defs>
</svg>
